<svg xmlns="http://www.w3.org/2000/svg" viewBox="0 0 80 80" width="80" height="80">
  <rect width="80" height="80" rx="16" fill="#0f172a"/>
  <!-- Sea wave -->
  <path d="M4 64 C 20 60, 30 68, 50 62 C 65 58, 72 65, 76 63 L 76 76 L 4 76 Z" fill="#0284c7" opacity="0.6"/>
  <path d="M4 67 C 18 63, 34 70, 52 65 C 66 61, 74 68, 76 66 L 76 76 L 4 76 Z" fill="#38bdf8" opacity="0.4"/>
  <!-- Ship Hull -->
  <path d="M12 50 L 20 62 L 62 62 L 68 50 Z" fill="#e2e8f0"/>
  <path d="M14 53 L 20 62 L 62 62 L 66 53 Z" fill="#94a3b8"/>
  <!-- Containers -->
  <rect x="22" y="42" width="12" height="8" rx="1" fill="#ef4444"/>
  <rect x="36" y="42" width="12" height="8" rx="1" fill="#3b82f6"/>
  <rect x="50" y="42" width="12" height="8" rx="1" fill="#10b981"/>
  <rect x="28" y="34" width="12" height="8" rx="1" fill="#f59e0b"/>
  <rect x="42" y="34" width="12" height="8" rx="1" fill="#8b5cf6"/>
  <!-- Cabin & Crane -->
  <rect x="58" y="36" width="6" height="14" fill="#f8fafc"/>
  <rect x="60" y="30" width="2" height="6" fill="#64748b"/>
  <!-- Crane arm -->
  <line x1="20" y1="18" x2="48" y2="18" stroke="#f59e0b" stroke-width="2.5" stroke-linecap="round"/>
  <line x1="20" y1="18" x2="20" y2="40" stroke="#f59e0b" stroke-width="2.5"/>
  <line x1="42" y1="18" x2="42" y2="28" stroke="#cbd5e1" stroke-width="1.5" stroke-dasharray="2,2"/>
</svg>