<svg width="64" height="64" viewBox="0 0 32 32" fill="none" xmlns="http://www.w3.org/2000/svg">
  <circle cx="16" cy="16" r="16" fill="#25D366" />
  <path
    d="M23.633 8.3C21.607 6.274 18.916 5.158 16.05 5.158C10.172 5.158 5.392 9.938 5.392 15.816C5.392 17.696 5.884 19.531 6.819 21.15L5.158 27.2L11.368 25.573C12.943 26.434 14.719 26.888 16.049 26.888H16.054C21.93 26.888 26.71 22.108 26.71 16.23C26.71 13.365 25.658 10.326 23.633 8.3ZM16.054 25.079H16.049C14.458 25.079 12.897 24.653 11.535 23.847L11.179 23.637L7.494 24.603L8.477 21.01L8.246 20.642C7.314 19.159 6.822 17.438 6.822 15.816C6.822 10.727 10.961 6.588 16.05 6.588C18.515 6.588 20.835 7.549 22.572 9.286C24.309 11.023 25.28 13.766 25.28 16.231C25.28 21.319 21.141 25.079 16.054 25.079ZM21.127 18.15C20.849 18.011 19.481 17.338 19.225 17.245C18.968 17.152 18.781 17.106 18.594 17.385C18.407 17.664 17.874 18.289 17.71 18.476C17.547 18.662 17.383 18.686 17.104 18.546C16.826 18.407 15.932 18.114 14.872 17.168C14.049 16.434 13.493 15.528 13.33 15.249C13.166 14.97 13.313 14.819 13.453 14.679C13.578 14.554 13.732 14.354 13.871 14.191C14.011 14.028 14.058 13.911 14.151 13.724C14.244 13.537 14.197 13.374 14.127 13.234C14.058 13.095 13.499 11.729 13.266 11.171C13.039 10.625 12.808 10.699 12.636 10.69L12.124 10.681C11.937 10.681 11.634 10.751 11.378 11.03C11.122 11.309 10.402 11.982 10.402 13.351C10.402 14.72 11.402 16.043 11.541 16.229C11.681 16.416 13.511 19.236 16.313 20.446C16.979 20.733 17.499 20.905 17.904 21.034C18.572 21.247 19.18 21.217 19.66 21.146C20.195 21.067 21.309 20.473 21.542 19.824C21.775 19.175 21.775 18.616 21.705 18.499C21.635 18.383 21.405 18.336 21.127 18.15Z"
    fill="white"
  />
</svg>
